# xmcd CD database file
#
# Track frame offsets:
#	150
#	9615
#	25650
#	42120
#	55400
#	64765
#	80615
#	106575
#	118912
#	134325
#
# Disc length: 2033 seconds
#
# Revision: 0
# Processed by: cddbd v1.5.1PL0 Copyright (c) Steve Scherf et al.
# Submitted via: CDex 1.51
#
DISCID=7e07ef0a
DTITLE=The Blues Brothers - MADE IN AMERICA
DYEAR=1980
DGENRE=Blues
TTITLE0=SOUL FINGER
TTITLE1=WHO'S MAKING LOVE
TTITLE2=DO YOU LOVE ME
TTITLE3=GUILTY
TTITLE4=PERRY MASON THEME
TTITLE5=RIOT IN CELL BLOCK NUMBER NINE
TTITLE6=GREEN ONIONS
TTITLE7=I AIN'T GOT YOU 
TTITLE8=FROM THE BOTTOM
TTITLE9=GOING BACK TO MIAMI
EXTD=YEAR: 1980
EXTT0=
EXTT1=
EXTT2=
EXTT3=
EXTT4=
EXTT5=
EXTT6=
EXTT7=
EXTT8=
EXTT9=
PLAYORDER=
